<svg width="16" height="22" viewBox="0 0 16 22" fill="none" xmlns="http://www.w3.org/2000/svg">
<path d="M7.55277 12.3419C6.83321 12.3419 6.23527 12.0884 5.75896 11.5814C5.28263 11.0743 5.04447 10.4544 5.04447 9.72146V2.49037C5.04447 1.79986 5.28692 1.21217 5.77182 0.727301C6.25671 0.242434 6.84979 0 7.55105 0C8.25231 0 8.84596 0.242434 9.332 0.727301C9.81805 1.21217 10.0611 1.79986 10.0611 2.49037V9.72146C10.0611 10.4544 9.82291 11.0743 9.34658 11.5814C8.87027 12.0884 8.27233 12.3419 7.55277 12.3419ZM7.54746 21.2916C7.35805 21.2916 7.20128 21.2283 7.07715 21.1016C6.953 20.975 6.89092 20.8177 6.89092 20.6298V17.1791C5.06017 16.9951 3.49527 16.2693 2.19622 15.0017C0.897199 13.7341 0.166914 12.2066 0.00536968 10.4192C-0.0185664 10.2262 0.0375214 10.0617 0.173633 9.92562C0.309744 9.78951 0.480252 9.72146 0.685157 9.72146C0.839468 9.72146 0.977515 9.7824 1.0993 9.9043C1.22106 10.0262 1.29765 10.1717 1.32907 10.3407C1.49059 11.9157 2.15976 13.2327 3.33655 14.2916C4.51335 15.3506 5.91703 15.8801 7.54758 15.8801C9.17813 15.8801 10.5835 15.3506 11.7638 14.2916C12.9441 13.2327 13.6149 11.9157 13.7765 10.3407C13.8092 10.1674 13.887 10.0209 14.01 9.90112C14.133 9.78134 14.2758 9.72146 14.4385 9.72146C14.6433 9.72146 14.8107 9.78951 14.9409 9.92562C15.071 10.0617 15.1241 10.2262 15.1002 10.4192C14.9386 12.2066 14.2083 13.7341 12.9093 15.0017C11.6103 16.2693 10.0454 16.9951 8.21462 17.1791V20.6298C8.21462 20.8177 8.15077 20.975 8.02308 21.1016C7.89539 21.2283 7.73685 21.2916 7.54746 21.2916Z" fill="black"/>
</svg>
