<svg width="22" height="23" viewBox="0 0 22 23" fill="none" xmlns="http://www.w3.org/2000/svg">
<path d="M12.5128 7.02581V1.76914C12.5128 1.49487 12.602 1.27034 12.7804 1.09554C12.9589 0.920763 13.1799 0.833374 13.4437 0.833374H20.4134C20.6771 0.833374 20.8964 0.920763 21.0712 1.09554C21.2459 1.27034 21.3333 1.49487 21.3333 1.76914V7.02581C21.3333 7.30007 21.2441 7.52461 21.0657 7.69941C20.8873 7.87419 20.6662 7.96157 20.4025 7.96157H13.4328C13.169 7.96157 12.9498 7.87419 12.775 7.69941C12.6002 7.52461 12.5128 7.30007 12.5128 7.02581ZM0 10.4333V1.74571C0 1.48706 0.0892 1.27034 0.2676 1.09554C0.446022 0.920763 0.6671 0.833374 0.930833 0.833374H7.90053C8.16429 0.833374 8.38356 0.920851 8.55833 1.09581C8.73313 1.27078 8.82053 1.4876 8.82053 1.74624V10.4339C8.82053 10.6925 8.73132 10.9092 8.5529 11.084C8.37448 11.2588 8.1534 11.3462 7.88967 11.3462H0.919967C0.656233 11.3462 0.436967 11.2587 0.262167 11.0837C0.0873891 10.9088 0 10.692 0 10.4333ZM12.5128 21.2538V12.5662C12.5128 12.3076 12.602 12.0909 12.7804 11.9161C12.9589 11.7413 13.1799 11.6539 13.4437 11.6539H20.4134C20.6771 11.6539 20.8964 11.7414 21.0712 11.9163C21.2459 12.0913 21.3333 12.3081 21.3333 12.5667V21.2544C21.3333 21.513 21.2441 21.7297 21.0657 21.9045C20.8873 22.0793 20.6662 22.1667 20.4025 22.1667H13.4328C13.169 22.1667 12.9498 22.0792 12.775 21.9043C12.6002 21.7293 12.5128 21.5125 12.5128 21.2538ZM0 21.2309V15.9743C0 15.7 0.0892 15.4755 0.2676 15.3007C0.446022 15.1259 0.6671 15.0385 0.930833 15.0385H7.90053C8.16429 15.0385 8.38356 15.1259 8.55833 15.3007C8.73313 15.4755 8.82053 15.7 8.82053 15.9743V21.2309C8.82053 21.5052 8.73132 21.7297 8.5529 21.9045C8.37448 22.0793 8.1534 22.1667 7.88967 22.1667H0.919967C0.656233 22.1667 0.436967 22.0793 0.262167 21.9045C0.0873891 21.7297 0 21.5052 0 21.2309ZM1.02563 10.3205H7.79487V1.85901H1.02563V10.3205ZM13.5385 21.1411H20.3077V12.6795H13.5385V21.1411ZM13.5385 6.93594H20.3077V1.85901H13.5385V6.93594ZM1.02563 21.1411H7.79487V16.0641H1.02563V21.1411Z" fill="#AAAAAA"/>
</svg>
