<svg width="22" height="22" viewBox="0 0 22 22" fill="none" xmlns="http://www.w3.org/2000/svg">
<path d="M10.1538 11.1795V16.1538C10.1538 16.2991 10.2037 16.4209 10.3033 16.5192C10.403 16.6175 10.5265 16.6667 10.6739 16.6667C10.8212 16.6667 10.9423 16.6175 11.0372 16.5192C11.1321 16.4209 11.1795 16.2991 11.1795 16.1538V11.1795H16.1538C16.2991 11.1795 16.4209 11.1297 16.5192 11.03C16.6175 10.9303 16.6667 10.8068 16.6667 10.6595C16.6667 10.5121 16.6175 10.391 16.5192 10.2962C16.4209 10.2013 16.2991 10.1538 16.1538 10.1538H11.1795V5.1795C11.1795 5.03419 11.1297 4.91239 11.03 4.8141C10.9303 4.71581 10.8068 4.66667 10.6595 4.66667C10.5121 4.66667 10.391 4.71581 10.2962 4.8141C10.2013 4.91239 10.1538 5.03419 10.1538 5.1795V10.1538H5.1795C5.03419 10.1538 4.91239 10.2037 4.8141 10.3033C4.71581 10.403 4.66667 10.5265 4.66667 10.6739C4.66667 10.8212 4.71581 10.9423 4.8141 11.0372C4.91239 11.1321 5.03419 11.1795 5.1795 11.1795H10.1538ZM1.84613 21.3333C1.33376 21.3333 0.897967 21.1537 0.538767 20.7946C0.179589 20.4354 0 19.9996 0 19.4872V1.84613C0 1.33375 0.179589 0.897968 0.538767 0.538768C0.897967 0.17959 1.33376 0 1.84613 0H19.4872C19.9996 0 20.4354 0.17959 20.7946 0.538768C21.1537 0.897968 21.3333 1.33375 21.3333 1.84613V19.4872C21.3333 19.9996 21.1537 20.4354 20.7946 20.7946C20.4354 21.1537 19.9996 21.3333 19.4872 21.3333H1.84613Z" fill="black"/>
</svg>
