<svg width="22" height="25" viewBox="0 0 22 25" fill="none" xmlns="http://www.w3.org/2000/svg">
<path d="M1.84613 24.3077C1.33376 24.3077 0.897967 24.1281 0.538767 23.7689C0.179589 23.4097 0 22.9739 0 22.4616V4.51283C0 4.00043 0.179589 3.56463 0.538767 3.20543C0.897967 2.84626 1.33376 2.66667 1.84613 2.66667H4.60257V0.605133C4.60257 0.439666 4.65702 0.297445 4.76593 0.178467C4.87487 0.059489 5.01282 0 5.1798 0C5.3562 0 5.50281 0.059489 5.61963 0.178467C5.73646 0.297445 5.79487 0.439666 5.79487 0.605133V2.66667H15.641V0.561033C15.641 0.390766 15.6929 0.254701 15.7968 0.152834C15.9006 0.0509452 16.03 0 16.185 0C16.3494 0 16.4857 0.0528665 16.594 0.1586C16.7023 0.264311 16.7564 0.396068 16.7564 0.553868V2.66667H19.4872C19.9996 2.66667 20.4354 2.84626 20.7946 3.20543C21.1537 3.56463 21.3333 4.00043 21.3333 4.51283V22.4616C21.3333 22.9739 21.1537 23.4097 20.7946 23.7689C20.4354 24.1281 19.9996 24.3077 19.4872 24.3077H1.84613ZM1.84613 23.2821H19.4872C19.6923 23.2821 19.8803 23.1966 20.0513 23.0257C20.2222 22.8547 20.3077 22.6667 20.3077 22.4616V10.3077H1.02563V22.4616C1.02563 22.6667 1.1111 22.8547 1.28203 23.0257C1.45299 23.1966 1.64102 23.2821 1.84613 23.2821Z" fill="black"/>
</svg>
