<svg width="23" height="24" viewBox="0 0 23 24" fill="none" xmlns="http://www.w3.org/2000/svg">
<path d="M12.7291 24H9.94445C9.7171 24 9.51752 23.9265 9.34572 23.7795C9.17394 23.6325 9.06583 23.4453 9.02139 23.218L8.59062 20.1846C8.10002 20.0291 7.56155 19.788 6.97522 19.4615C6.38891 19.135 5.89233 18.7846 5.48549 18.4103L2.71882 19.6898C2.50855 19.7838 2.28974 19.7919 2.06239 19.7141C1.83505 19.6363 1.66326 19.4838 1.54702 19.2564L0.116252 16.7667C7.34329e-06 16.5615 -0.0290592 16.3453 0.0290519 16.1179C0.0871852 15.8906 0.207696 15.7077 0.390585 15.5692L2.87265 13.7256C2.82821 13.4573 2.79189 13.1739 2.76369 12.8756C2.73549 12.5773 2.72139 12.294 2.72139 12.0256C2.72139 11.7744 2.73549 11.4996 2.76369 11.2013C2.79189 10.903 2.82821 10.594 2.87265 10.2744L0.390585 8.43077C0.207696 8.2923 0.0871852 8.1094 0.0290519 7.88207C-0.0290592 7.65471 7.34329e-06 7.43847 0.116252 7.23333L1.54702 4.76923C1.68035 4.57606 1.85214 4.43631 2.06239 4.35C2.27265 4.26367 2.48292 4.26751 2.69319 4.36153L5.45985 5.58973C5.91796 5.21538 6.42309 4.86922 6.97522 4.55127C7.52735 4.23333 8.05726 3.99914 8.56495 3.8487L9.02139 0.782033C9.06583 0.5547 9.17394 0.367522 9.34572 0.2205C9.51752 0.0734997 9.7171 0 9.94445 0H12.7291C12.9564 0 13.1603 0.0734997 13.3406 0.2205C13.521 0.367522 13.6333 0.5547 13.6778 0.782033L14.1086 3.84103C14.6675 4.04786 15.1987 4.29187 15.7022 4.57307C16.2056 4.85427 16.6838 5.19316 17.1368 5.58973L20.006 4.36153C20.2163 4.26751 20.4308 4.25511 20.6496 4.32433C20.8684 4.39358 21.0359 4.53332 21.1522 4.74357L22.5829 7.22563C22.6992 7.43077 22.7338 7.64829 22.6868 7.8782C22.6398 8.10811 22.5137 8.2923 22.3086 8.43077L19.724 10.3103C19.8026 10.618 19.8517 10.9124 19.8714 11.1936C19.8911 11.4748 19.9009 11.7436 19.9009 12C19.9009 12.2393 19.8868 12.4983 19.8586 12.7769C19.8304 13.0556 19.7855 13.3658 19.724 13.7077L22.2829 15.5692C22.4658 15.6906 22.5863 15.8692 22.6445 16.1051C22.7026 16.341 22.665 16.5615 22.5317 16.7667L21.1265 19.2821C20.9932 19.4923 20.8171 19.6321 20.5983 19.7013C20.3795 19.7705 20.1564 19.7581 19.9291 19.6641L17.1368 18.3846C16.6616 18.7932 16.1705 19.1534 15.6637 19.4654C15.1569 19.7774 14.6385 20.0085 14.1086 20.159L13.6778 23.218C13.6333 23.4453 13.521 23.6325 13.3406 23.7795C13.1603 23.9265 12.9564 24 12.7291 24ZM11.2727 15.1795C12.165 15.1795 12.918 14.8727 13.5317 14.259C14.1453 13.6453 14.4522 12.8923 14.4522 12C14.4522 11.1077 14.1453 10.3547 13.5317 9.74103C12.918 9.12735 12.165 8.8205 11.2727 8.8205C10.3975 8.8205 9.64874 9.12735 9.02652 9.74103C8.40427 10.3547 8.09315 11.1077 8.09315 12C8.09315 12.8923 8.40427 13.6453 9.02652 14.259C9.64874 14.8727 10.3975 15.1795 11.2727 15.1795ZM11.2727 14.1538C10.6795 14.1538 10.1722 13.9432 9.75085 13.5218C9.3295 13.1004 9.11882 12.5932 9.11882 12C9.11882 11.4068 9.3295 10.8996 9.75085 10.4782C10.1722 10.0568 10.6795 9.84617 11.2727 9.84617C11.8829 9.84617 12.3945 10.0568 12.8073 10.4782C13.2201 10.8996 13.4265 11.4068 13.4265 12C13.4265 12.5932 13.2201 13.1004 12.8073 13.5218C12.3945 13.9432 11.8829 14.1538 11.2727 14.1538ZM9.95985 22.9744H12.7137L13.206 19.2667C13.8881 19.0889 14.5141 18.8368 15.0842 18.5103C15.6543 18.1838 16.2316 17.7453 16.8163 17.1949L20.247 18.6769L21.5804 16.3538L18.5496 14.1051C18.6385 13.6932 18.7064 13.3209 18.7534 12.9885C18.8004 12.656 18.824 12.3265 18.824 12C18.824 11.6393 18.8017 11.3013 18.7573 10.9859C18.7128 10.6705 18.6436 10.3239 18.5496 9.94617L21.6317 7.64617L20.2983 5.32307L16.7906 6.80513C16.365 6.32991 15.8128 5.88503 15.1342 5.4705C14.4556 5.05597 13.8043 4.81024 13.1804 4.73333L12.7393 1.02563H9.95985L9.54445 4.7077C8.8231 4.84615 8.16882 5.08289 7.58162 5.41793C6.99444 5.75298 6.41966 6.20683 5.85728 6.7795L2.40085 5.32307L1.06752 7.64617L4.09829 9.86923C3.99231 10.1957 3.91582 10.538 3.86882 10.8962C3.8218 11.2543 3.79829 11.6308 3.79829 12.0256C3.79829 12.3863 3.8218 12.7372 3.86882 13.0782C3.91582 13.4192 3.98376 13.7615 4.07265 14.1051L1.06752 16.3538L2.40085 18.6769L5.83162 17.2205C6.36495 17.7709 6.92949 18.2094 7.52522 18.5359C8.12095 18.8624 8.78549 19.1145 9.51882 19.2923L9.95985 22.9744Z" fill="#AAAAAA"/>
</svg>
