<svg width="22" height="22" viewBox="0 0 22 22" fill="none" xmlns="http://www.w3.org/2000/svg">
<path d="M12.5128 6.19243V0.935767C12.5128 0.6615 12.602 0.436966 12.7804 0.262166C12.9589 0.0873886 13.1799 0 13.4437 0H20.4134C20.6771 0 20.8964 0.0873886 21.0712 0.262166C21.2459 0.436966 21.3333 0.6615 21.3333 0.935767V6.19243C21.3333 6.4667 21.2441 6.69123 21.0657 6.86603C20.8873 7.04081 20.6662 7.1282 20.4025 7.1282H13.4328C13.169 7.1282 12.9498 7.04081 12.775 6.86603C12.6002 6.69123 12.5128 6.4667 12.5128 6.19243ZM0 9.59997V0.912333C0 0.653689 0.0892 0.436966 0.2676 0.262166C0.446022 0.0873886 0.6671 0 0.930833 0H7.90053C8.16429 0 8.38356 0.0874773 8.55833 0.262433C8.73313 0.437411 8.82053 0.654222 8.82053 0.912866V9.6005C8.82053 9.85915 8.73132 10.0759 8.5529 10.2506C8.37448 10.4254 8.1534 10.5128 7.88967 10.5128H0.919967C0.656233 10.5128 0.436967 10.4253 0.262167 10.2504C0.0873891 10.0754 0 9.85861 0 9.59997ZM12.5128 20.4205V11.7328C12.5128 11.4742 12.602 11.2575 12.7804 11.0827C12.9589 10.9079 13.1799 10.8205 13.4437 10.8205H20.4134C20.6771 10.8205 20.8964 10.908 21.0712 11.083C21.2459 11.2579 21.3333 11.4747 21.3333 11.7334V20.421C21.3333 20.6796 21.2441 20.8964 21.0657 21.0712C20.8873 21.2459 20.6662 21.3333 20.4025 21.3333H13.4328C13.169 21.3333 12.9498 21.2459 12.775 21.0709C12.6002 20.8959 12.5128 20.6791 12.5128 20.4205ZM0 20.3976V15.1409C0 14.8666 0.0892 14.6421 0.2676 14.4673C0.446022 14.2925 0.6671 14.2051 0.930833 14.2051H7.90053C8.16429 14.2051 8.38356 14.2925 8.55833 14.4673C8.73313 14.6421 8.82053 14.8666 8.82053 15.1409V20.3976C8.82053 20.6718 8.73132 20.8964 8.5529 21.0712C8.37448 21.2459 8.1534 21.3333 7.88967 21.3333H0.919967C0.656233 21.3333 0.436967 21.2459 0.262167 21.0712C0.0873891 20.8964 0 20.6718 0 20.3976Z" fill="black"/>
</svg>
