<svg width="22" height="22" viewBox="0 0 22 22" fill="none" xmlns="http://www.w3.org/2000/svg">
<path d="M10.1538 16.6667H11.1795V11.1795H16.6667V10.1538H11.1795V4.66667H10.1538V10.1538H4.66667V11.1795H10.1538V16.6667ZM1.84613 21.3333C1.33376 21.3333 0.897967 21.1537 0.538767 20.7946C0.179589 20.4354 0 19.9996 0 19.4872V1.84613C0 1.33375 0.179589 0.897968 0.538767 0.538768C0.897967 0.17959 1.33376 0 1.84613 0H19.4872C19.9996 0 20.4354 0.17959 20.7946 0.538768C21.1537 0.897968 21.3333 1.33375 21.3333 1.84613V19.4872C21.3333 19.9996 21.1537 20.4354 20.7946 20.7946C20.4354 21.1537 19.9996 21.3333 19.4872 21.3333H1.84613ZM1.84613 20.3077H19.4872C19.6923 20.3077 19.8803 20.2222 20.0513 20.0513C20.2222 19.8803 20.3077 19.6923 20.3077 19.4872V1.84613C20.3077 1.64102 20.2222 1.45299 20.0513 1.28203C19.8803 1.1111 19.6923 1.02563 19.4872 1.02563H1.84613C1.64102 1.02563 1.45299 1.1111 1.28203 1.28203C1.1111 1.45299 1.02563 1.64102 1.02563 1.84613V19.4872C1.02563 19.6923 1.1111 19.8803 1.28203 20.0513C1.45299 20.2222 1.64102 20.3077 1.84613 20.3077Z" fill="#AAAAAA"/>
</svg>
