<svg width="14" height="21" viewBox="0 0 14 21" fill="none" xmlns="http://www.w3.org/2000/svg">
<path d="M6.9878 11.3548C6.38477 11.3548 5.88887 11.1483 5.5001 10.7354C5.11135 10.3224 4.91697 9.81245 4.91697 9.20544V2.0641C4.91697 1.49323 5.11564 1.00649 5.51299 0.603896C5.91032 0.201299 6.40135 0 6.98608 0C7.57082 0 8.06243 0.201299 8.46093 0.603896C8.8594 1.00649 9.05864 1.49323 9.05864 2.0641V9.20544C9.05864 9.81245 8.86426 10.3224 8.47551 10.7354C8.08674 11.1483 7.59083 11.3548 6.9878 11.3548ZM6.98229 20.4167C6.85285 20.4167 6.74662 20.3738 6.66362 20.2882C6.58059 20.2026 6.53907 20.0958 6.53907 19.9679V16.1359C4.7831 15.9968 3.28177 15.3159 2.03507 14.0931C0.788389 12.8704 0.110449 11.3952 0.00124945 9.66764C-0.00771444 9.53451 0.0315537 9.42419 0.119054 9.33669C0.206554 9.24919 0.319108 9.20544 0.456716 9.20544C0.561172 9.20544 0.654962 9.24957 0.738087 9.33782C0.821231 9.42606 0.874771 9.53226 0.898707 9.65641C1.00789 11.2314 1.6502 12.5577 2.82563 13.6354C4.00105 14.7131 5.38671 15.2519 6.98261 15.2519C8.57849 15.2519 9.96589 14.7131 11.1448 13.6354C12.3237 12.5577 12.9677 11.2314 13.0769 9.65641C13.0989 9.52864 13.1494 9.42154 13.2286 9.33511C13.3078 9.24866 13.4086 9.20544 13.5309 9.20544C13.665 9.20544 13.7747 9.24919 13.8599 9.33669C13.9452 9.42419 13.9833 9.53451 13.9744 9.66764C13.8652 11.3952 13.1872 12.8704 11.9405 14.0931C10.6938 15.3159 9.1925 15.9968 7.43653 16.1359V19.9679C7.43653 20.0958 7.39319 20.2026 7.30651 20.2882C7.2198 20.3738 7.11173 20.4167 6.98229 20.4167ZM6.9878 10.4574C7.32285 10.4574 7.60218 10.3373 7.82579 10.0973C8.0494 9.8572 8.16121 9.55691 8.16121 9.19637V2.0641C8.16121 1.73354 8.04875 1.45646 7.82384 1.23285C7.59894 1.00923 7.32026 0.897429 6.9878 0.897429C6.65534 0.897429 6.37666 1.00923 6.15177 1.23285C5.92686 1.45646 5.8144 1.73354 5.8144 2.0641V9.19637C5.8144 9.55691 5.92621 9.8572 6.14982 10.0973C6.37343 10.3373 6.65276 10.4574 6.9878 10.4574Z" fill="#AAAAAA"/>
</svg>
