<svg width="32" height="32" viewBox="0 0 32 32" fill="none" xmlns="http://www.w3.org/2000/svg">
<path d="M21.0769 27.3334C20.5316 27.3334 20.062 27.1363 19.668 26.7423C19.274 26.3483 19.077 25.8787 19.077 25.3334V19.7436C19.077 19.1983 19.274 18.7287 19.668 18.3347C20.062 17.9407 20.5316 17.7437 21.0769 17.7437H26.6667C27.212 17.7437 27.6816 17.9407 28.0756 18.3347C28.4696 18.7287 28.6666 19.1983 28.6666 19.7436V25.3334C28.6666 25.8787 28.4696 26.3483 28.0756 26.7423C27.6816 27.1363 27.212 27.3334 26.6667 27.3334H21.0769ZM3.33337 23.2949V21.7821H14.8205V23.2949H3.33337ZM21.0769 14.2564C20.5316 14.2564 20.062 14.0594 19.668 13.6654C19.274 13.2714 19.077 12.8018 19.077 12.2565V6.66672C19.077 6.12143 19.274 5.65178 19.668 5.25778C20.062 4.86376 20.5316 4.66675 21.0769 4.66675H26.6667C27.212 4.66675 27.6816 4.86376 28.0756 5.25778C28.4696 5.65178 28.6666 6.12143 28.6666 6.66672V12.2565C28.6666 12.8018 28.4696 13.2714 28.0756 13.6654C27.6816 14.0594 27.212 14.2564 26.6667 14.2564H21.0769ZM3.33337 10.218V8.70522H14.8205V10.218H3.33337Z" fill="black"/>
</svg>
