<svg width="22" height="25" viewBox="0 0 22 25" fill="none" xmlns="http://www.w3.org/2000/svg">
<path d="M1.84613 24.5C1.33376 24.5 0.897967 24.3204 0.538767 23.9612C0.179589 23.602 0 23.1662 0 22.6538V4.70509C0 4.19269 0.179589 3.7569 0.538767 3.3977C0.897967 3.03852 1.33376 2.85893 1.84613 2.85893H4.60257V0.797394C4.60257 0.631927 4.65702 0.489705 4.76593 0.370728C4.87487 0.25175 5.01282 0.192261 5.1798 0.192261C5.3562 0.192261 5.50281 0.25175 5.61963 0.370728C5.73646 0.489705 5.79487 0.631927 5.79487 0.797394V2.85893H15.641V0.753294C15.641 0.583027 15.6929 0.446961 15.7968 0.345095C15.9006 0.243206 16.03 0.192261 16.185 0.192261C16.3494 0.192261 16.4857 0.245127 16.594 0.350861C16.7023 0.456572 16.7564 0.588328 16.7564 0.746128V2.85893H19.4872C19.9996 2.85893 20.4354 3.03852 20.7946 3.3977C21.1537 3.7569 21.3333 4.19269 21.3333 4.70509V22.6538C21.3333 23.1662 21.1537 23.602 20.7946 23.9612C20.4354 24.3204 19.9996 24.5 19.4872 24.5H1.84613ZM1.84613 23.4743H19.4872C19.6923 23.4743 19.8803 23.3889 20.0513 23.2179C20.2222 23.047 20.3077 22.8589 20.3077 22.6538V10.5H1.02563V22.6538C1.02563 22.8589 1.1111 23.047 1.28203 23.2179C1.45299 23.3889 1.64102 23.4743 1.84613 23.4743ZM1.02563 9.47429H20.3077V4.70509C20.3077 4.49996 20.2222 4.31193 20.0513 4.141C19.8803 3.97004 19.6923 3.88456 19.4872 3.88456H1.84613C1.64102 3.88456 1.45299 3.97004 1.28203 4.141C1.1111 4.31193 1.02563 4.49996 1.02563 4.70509V9.47429Z" fill="#AAAAAA"/>
</svg>
